if (_typeface_js && _typeface_js.loadFace) _typeface_js.loadFace({"glyphs":{"S":{"x_min":39.46875,"x_max":468.21875,"ha":517,"o":"m 254 981 b 43 738 111 981 43 888 b 362 227 43 465 362 444 b 250 88 362 140 326 88 b 138 227 174 88 138 140 l 138 288 l 39 288 l 39 233 b 253 -9 39 86 107 -9 b 468 233 398 -9 468 86 b 148 745 468 506 148 527 b 257 883 148 831 181 883 b 366 744 333 883 366 831 l 366 712 l 466 712 l 466 738 b 254 981 466 886 398 981 "},"/":{"x_min":22,"x_max":490.21875,"ha":522,"o":"m 397 972 l 22 0 l 114 0 l 490 972 l 397 972 "},"K":{"x_min":54.4375,"x_max":529.46875,"ha":568,"o":"m 420 0 l 529 0 l 280 529 l 521 972 l 413 972 l 160 502 l 160 972 l 54 972 l 54 0 l 160 0 l 160 326 l 216 422 l 420 0 "},"7":{"x_min":47.90625,"x_max":479.390625,"ha":538,"o":"m 128 0 l 234 0 l 479 877 l 479 972 l 47 972 l 47 875 l 371 875 l 128 0 "},"d":{"x_min":54.4375,"x_max":494.078125,"ha":550,"o":"m 54 972 l 54 0 l 277 0 b 494 240 426 0 494 91 l 494 730 b 277 972 494 880 426 972 l 54 972 m 160 98 l 160 873 l 274 873 b 389 736 352 873 389 825 l 389 236 b 276 98 389 147 352 98 l 160 98 "},",":{"x_min":61,"x_max":163.078125,"ha":222,"o":"m 66 -122 l 110 -122 l 163 9 l 163 134 l 61 134 l 61 0 l 100 0 l 66 -122 "},"Y":{"x_min":21.78125,"x_max":530.828125,"ha":564,"o":"m 223 0 l 328 0 l 328 348 l 530 972 l 430 972 l 280 494 l 132 972 l 21 972 l 223 348 l 223 0 "},"E":{"x_min":54.4375,"x_max":446.4375,"ha":500,"o":"m 160 541 l 160 873 l 446 873 l 446 972 l 54 972 l 54 0 l 446 0 l 446 98 l 160 98 l 160 444 l 393 444 l 393 541 l 160 541 "},"y":{"x_min":21.78125,"x_max":530.828125,"ha":564,"o":"m 223 0 l 328 0 l 328 348 l 530 972 l 430 972 l 280 494 l 132 972 l 21 972 l 223 348 l 223 0 "},"\"":{"x_min":54.4375,"x_max":306.25,"ha":368,"o":"m 54 972 l 68 709 l 141 709 l 156 972 l 54 972 m 204 972 l 217 709 l 291 709 l 306 972 l 204 972 "},"g":{"x_min":46.28125,"x_max":475.03125,"ha":532,"o":"m 259 981 b 46 737 114 981 46 884 l 46 234 b 259 -9 46 87 114 -9 b 475 234 406 -9 475 87 l 475 520 l 276 520 l 276 423 l 374 423 l 374 229 b 262 88 374 141 340 88 b 151 229 186 88 151 141 l 151 743 b 262 883 151 830 186 883 b 374 743 340 883 374 830 l 374 654 l 475 654 l 475 737 b 259 981 475 884 406 981 "},"e":{"x_min":54.4375,"x_max":446.4375,"ha":500,"o":"m 160 541 l 160 873 l 446 873 l 446 972 l 54 972 l 54 0 l 446 0 l 446 98 l 160 98 l 160 444 l 393 444 l 393 541 l 160 541 "},"J":{"x_min":27.21875,"x_max":296.71875,"ha":354,"o":"m 27 0 b 93 -1 50 -2 69 -1 b 296 240 208 1 296 58 l 296 972 l 191 972 l 191 233 b 80 97 191 134 149 101 b 27 98 63 97 44 97 l 27 0 "},"|":{"x_min":215.0625,"x_max":302.171875,"ha":518,"o":"m 215 1033 l 215 -61 l 302 -61 l 302 1033 l 215 1033 "},"^":{"x_min":36.75,"x_max":511.78125,"ha":560,"o":"m 273 873 l 426 541 l 511 541 l 313 972 l 235 972 l 36 541 l 122 541 l 273 873 "},"q":{"x_min":46.140625,"x_max":518.453125,"ha":544,"o":"m 263 981 b 46 737 118 981 46 885 l 46 234 b 263 -9 46 87 118 -9 b 379 19 310 -9 349 1 b 500 -43 401 -21 440 -43 l 518 -43 l 518 52 l 504 52 b 446 83 474 52 457 59 b 483 234 470 122 483 174 l 483 737 b 263 981 483 885 410 981 m 263 883 b 376 742 341 883 376 830 l 376 229 b 263 88 376 140 341 88 b 150 229 187 88 150 140 l 150 742 b 263 883 150 830 187 883 "},"b":{"x_min":54.4375,"x_max":491.359375,"ha":544,"o":"m 54 972 l 54 0 l 273 0 b 491 227 421 0 491 81 l 491 309 b 363 518 491 416 455 491 b 475 711 446 544 475 608 l 475 756 b 268 972 475 900 416 972 l 54 972 m 160 559 l 160 873 l 265 873 b 370 745 341 873 370 831 l 370 688 b 242 559 370 587 326 559 l 160 559 m 160 98 l 160 461 l 253 461 b 386 316 344 461 386 425 l 386 230 b 273 98 386 140 351 98 l 160 98 "},"D":{"x_min":54.4375,"x_max":494.078125,"ha":550,"o":"m 54 972 l 54 0 l 277 0 b 494 240 426 0 494 91 l 494 730 b 277 972 494 880 426 972 l 54 972 m 160 98 l 160 873 l 274 873 b 389 736 352 873 389 825 l 389 236 b 276 98 389 147 352 98 l 160 98 "},"z":{"x_min":39.109375,"x_max":474.890625,"ha":526,"o":"m 472 98 l 146 98 l 474 875 l 474 972 l 54 972 l 54 873 l 366 873 l 39 97 l 39 0 l 472 0 l 472 98 "},"w":{"x_min":31,"x_max":762,"ha":810,"o":"m 401 659 l 492 0 l 632 0 l 762 972 l 669 972 l 561 142 l 457 970 l 352 970 l 246 144 l 134 972 l 31 972 l 161 0 l 307 0 l 401 659 "},"$":{"x_min":49,"x_max":477.75,"ha":538,"o":"m 307 1045 l 220 1045 l 220 968 b 53 729 106 950 53 862 b 371 236 53 455 371 452 b 259 98 371 148 337 98 b 148 236 183 98 148 148 l 148 302 l 49 302 l 49 243 b 220 2 49 111 102 19 l 220 -70 l 307 -70 l 307 2 b 477 243 423 19 477 112 b 157 736 477 516 157 518 b 266 875 157 822 191 875 b 377 736 343 875 377 822 l 377 702 l 476 702 l 476 729 b 307 968 476 859 423 951 l 307 1045 "},"\\":{"x_min":22,"x_max":490,"ha":522,"o":"m 22 972 l 397 0 l 490 0 l 114 972 l 22 972 "},"~":{"x_min":25,"x_max":515,"ha":550,"o":"m 170 569 b 25 459 118 569 78 540 l 76 409 b 170 487 112 462 133 487 b 374 400 234 487 298 399 b 515 508 425 402 464 428 l 463 561 b 374 484 429 509 408 484 b 170 569 312 483 248 571 "},"-":{"x_min":50.359375,"x_max":310.328125,"ha":368,"o":"m 50 437 l 310 437 l 310 534 l 50 534 l 50 437 "},"Q":{"x_min":46.140625,"x_max":518.453125,"ha":558,"o":"m 263 981 b 46 737 118 981 46 885 l 46 234 b 263 -9 46 87 118 -9 b 379 19 310 -9 349 1 b 500 -43 401 -21 440 -43 l 518 -43 l 518 52 l 504 52 b 446 83 474 52 457 59 b 483 234 470 122 483 174 l 483 737 b 263 981 483 885 410 981 m 263 883 b 376 742 341 883 376 830 l 376 229 b 263 88 376 140 341 88 b 150 229 187 88 150 140 l 150 742 b 263 883 150 830 187 883 "},"M":{"x_min":53.078125,"x_max":657.421875,"ha":726,"o":"m 556 781 l 556 0 l 657 0 l 657 972 l 509 972 l 357 195 l 201 972 l 53 972 l 53 0 l 145 0 l 145 775 l 303 1 l 405 1 l 556 781 "},"C":{"x_min":46.28125,"x_max":475.03125,"ha":528,"o":"m 259 981 b 46 737 114 981 46 884 l 46 234 b 259 -9 46 87 114 -9 b 475 234 406 -9 475 87 l 475 355 l 374 355 l 374 229 b 262 88 374 141 340 88 b 151 229 186 88 151 141 l 151 743 b 262 883 151 830 186 883 b 374 743 340 883 374 830 l 374 650 l 475 650 l 475 737 b 259 981 475 884 406 981 "},"[":{"x_min":61.25,"x_max":291.28125,"ha":336,"o":"m 166 88 l 166 883 l 291 883 l 291 972 l 61 972 l 61 0 l 291 0 l 291 88 l 166 88 "},"L":{"x_min":54.4375,"x_max":432.828125,"ha":468,"o":"m 432 0 l 432 98 l 160 98 l 160 972 l 54 972 l 54 0 l 432 0 "},"!":{"x_min":54.4375,"x_max":160.609375,"ha":219,"o":"m 68 215 l 147 215 l 160 515 l 160 972 l 54 972 l 54 515 l 68 215 m 55 134 l 55 0 l 157 0 l 157 134 l 55 134 "}," ":{"x_min":0,"x_max":0,"ha":215},"{":{"x_min":27.25,"x_max":317.15625,"ha":357,"o":"m 317 883 l 317 972 l 254 972 b 118 823 168 972 125 918 l 108 634 b 27 531 104 566 93 537 l 27 440 b 108 337 93 434 104 405 l 118 148 b 254 0 125 54 168 0 l 317 0 l 317 88 l 291 88 b 213 195 234 88 217 122 l 205 352 b 117 486 202 411 189 466 b 205 619 189 505 202 561 l 213 776 b 291 883 217 850 234 883 l 317 883 "},"X":{"x_min":31,"x_max":560,"ha":604,"o":"m 448 0 l 560 0 l 369 501 l 547 972 l 448 972 l 300 583 l 153 972 l 43 972 l 222 501 l 31 0 l 131 0 l 290 419 l 448 0 "},"P":{"x_min":54.4375,"x_max":476.390625,"ha":519,"o":"m 54 972 l 54 0 l 160 0 l 160 383 l 254 383 b 476 618 405 383 476 463 l 476 734 b 262 972 476 881 412 972 l 54 972 m 160 480 l 160 873 l 262 873 b 371 740 340 873 371 829 l 371 611 b 254 480 371 518 333 480 l 160 480 "},"%":{"x_min":49,"x_max":789.453125,"ha":856,"o":"m 185 977 b 49 820 92 977 49 913 l 49 513 b 185 356 49 419 92 356 b 321 513 277 356 321 419 l 321 820 b 185 977 321 913 277 977 m 571 972 l 196 0 l 259 0 l 635 972 l 571 972 m 185 913 b 253 825 232 913 253 877 l 253 508 b 185 420 253 455 232 420 b 117 508 136 420 117 455 l 117 825 b 185 913 117 877 136 913 m 653 613 b 517 458 560 613 517 551 l 517 152 b 653 -4 517 58 560 -4 b 789 152 747 -4 789 58 l 789 458 b 653 613 789 551 747 613 m 653 550 b 721 462 700 550 721 515 l 721 147 b 653 58 721 94 700 58 b 585 147 605 58 585 94 l 585 462 b 653 550 585 515 605 550 "},"#":{"x_min":31,"x_max":529,"ha":572,"o":"m 520 655 l 529 733 l 452 733 l 477 972 l 390 972 l 365 733 l 240 733 l 265 972 l 177 972 l 153 733 l 74 733 l 66 655 l 146 655 l 116 370 l 39 370 l 31 293 l 109 293 l 78 0 l 165 0 l 197 293 l 320 293 l 290 0 l 377 0 l 407 293 l 484 293 l 492 370 l 416 370 l 444 655 l 520 655 m 328 370 l 203 370 l 233 655 l 357 655 l 328 370 "},"_":{"x_min":17.6875,"x_max":666.953125,"ha":704,"o":"m 17 -13 l 17 -93 l 666 -93 l 666 -13 l 17 -13 "},"+":{"x_min":40.828125,"x_max":492.71875,"ha":544,"o":"m 492 447 l 492 525 l 304 525 l 304 718 l 228 718 l 228 525 l 40 525 l 40 447 l 228 447 l 228 251 l 304 251 l 304 447 l 492 447 "},")":{"x_min":32.671875,"x_max":266.78125,"ha":335,"o":"m 32 972 l 32 883 l 63 883 b 161 758 137 883 161 843 l 161 213 b 63 88 161 129 138 88 l 32 88 l 32 0 l 70 0 b 266 213 216 0 266 68 l 266 758 b 70 972 266 904 216 972 l 32 972 "},"'":{"x_min":51.71875,"x_max":153.8125,"ha":210,"o":"m 51 972 l 65 709 l 138 709 l 153 972 l 51 972 "},"}":{"x_min":32.203125,"x_max":320.75,"ha":357,"o":"m 32 972 l 32 883 l 58 883 b 135 776 115 883 131 850 l 143 619 b 232 486 146 561 158 505 b 143 352 158 466 146 411 l 135 195 b 58 88 131 122 115 88 l 32 88 l 32 0 l 94 0 b 229 148 179 0 224 54 l 240 337 b 320 440 244 405 254 434 l 320 531 b 240 634 254 537 244 566 l 229 823 b 94 972 224 918 179 972 l 32 972 "},"a":{"x_min":27,"x_max":546,"ha":586,"o":"m 402 195 l 439 0 l 546 0 l 363 972 l 209 972 l 27 0 l 125 0 l 161 195 l 402 195 m 280 849 l 387 288 l 175 288 l 280 849 "},"T":{"x_min":17.6875,"x_max":475.03125,"ha":504,"o":"m 299 0 l 299 873 l 475 873 l 475 972 l 17 972 l 17 873 l 193 873 l 193 0 l 299 0 "},"=":{"x_min":50.359375,"x_max":426.03125,"ha":486,"o":"m 50 633 l 50 555 l 426 555 l 426 633 l 50 633 m 50 436 l 50 358 l 426 358 l 426 436 l 50 436 "},"N":{"x_min":53.078125,"x_max":502.25,"ha":568,"o":"m 148 786 l 392 0 l 502 0 l 502 972 l 408 972 l 408 269 l 187 972 l 53 972 l 53 0 l 148 0 l 148 786 "},"2":{"x_min":54.4375,"x_max":483.1875,"ha":538,"o":"m 268 981 b 54 734 121 981 54 883 l 54 655 l 153 655 l 153 741 b 265 884 153 827 187 884 b 377 731 344 884 377 831 b 54 83 377 458 54 397 l 54 0 l 472 0 l 472 98 l 159 98 l 159 113 b 483 736 160 337 483 443 b 268 981 483 884 416 981 "},"j":{"x_min":27.21875,"x_max":296.71875,"ha":354,"o":"m 27 0 b 93 -1 50 -2 69 -1 b 296 240 208 1 296 58 l 296 972 l 191 972 l 191 233 b 80 97 191 134 149 101 b 27 98 63 97 44 97 l 27 0 "},"Z":{"x_min":39.109375,"x_max":474.890625,"ha":526,"o":"m 472 98 l 146 98 l 474 875 l 474 972 l 54 972 l 54 873 l 366 873 l 39 97 l 39 0 l 472 0 l 472 98 "},"":{"x_min":97.015625,"x_max":186.90625,"ha":0,"o":"m 186 -158 l 186 -45 l 97 -45 l 97 -168 l 131 -168 l 99 -245 l 139 -245 l 186 -158 "},"u":{"x_min":50.359375,"x_max":476.390625,"ha":538,"o":"m 155 972 l 50 972 l 50 234 b 262 -11 50 87 117 -11 b 476 234 409 -11 476 87 l 476 972 l 377 972 l 377 229 b 266 88 377 141 343 88 b 155 229 189 88 155 141 l 155 972 "},"1":{"x_min":117.0625,"x_max":353.890625,"ha":469,"o":"m 249 0 l 353 0 l 353 972 l 280 972 b 117 843 255 904 220 847 l 117 754 b 249 795 167 756 213 773 l 249 0 "},"k":{"x_min":54.4375,"x_max":529.46875,"ha":568,"o":"m 420 0 l 529 0 l 280 529 l 521 972 l 413 972 l 160 502 l 160 972 l 54 972 l 54 0 l 160 0 l 160 326 l 216 422 l 420 0 "},"<":{"x_min":45.015625,"x_max":466.953125,"ha":532,"o":"m 466 350 l 144 486 l 466 622 l 466 701 l 45 525 l 45 447 l 466 270 l 466 350 "},"t":{"x_min":16.328125,"x_max":472.3125,"ha":500,"o":"m 296 0 l 296 873 l 472 873 l 472 972 l 16 972 l 16 873 l 191 873 l 191 0 l 296 0 "},"W":{"x_min":31,"x_max":762,"ha":810,"o":"m 401 659 l 492 0 l 632 0 l 762 972 l 669 972 l 561 142 l 457 970 l 352 970 l 246 144 l 134 972 l 31 972 l 161 0 l 307 0 l 401 659 "},"v":{"x_min":27,"x_max":542,"ha":581,"o":"m 27 972 l 206 0 l 363 0 l 542 972 l 443 972 l 289 126 l 134 972 l 27 972 "},">":{"x_min":54.4375,"x_max":476.390625,"ha":532,"o":"m 54 270 l 476 447 l 476 525 l 54 701 l 54 622 l 377 486 l 54 350 l 54 270 "},"s":{"x_min":39.46875,"x_max":468.21875,"ha":517,"o":"m 254 981 b 43 738 111 981 43 888 b 362 227 43 465 362 444 b 250 88 362 140 326 88 b 138 227 174 88 138 140 l 138 288 l 39 288 l 39 233 b 253 -9 39 86 107 -9 b 468 233 398 -9 468 86 b 148 745 468 506 148 527 b 257 883 148 831 181 883 b 366 744 333 883 366 831 l 366 712 l 466 712 l 466 738 b 254 981 466 886 398 981 "},"B":{"x_min":54.4375,"x_max":491.359375,"ha":544,"o":"m 54 972 l 54 0 l 273 0 b 491 227 421 0 491 81 l 491 309 b 363 518 491 416 455 491 b 475 711 446 544 475 608 l 475 756 b 268 972 475 900 416 972 l 54 972 m 160 559 l 160 873 l 265 873 b 370 745 341 873 370 831 l 370 688 b 242 559 370 587 326 559 l 160 559 m 160 98 l 160 461 l 253 461 b 386 316 344 461 386 425 l 386 230 b 273 98 386 140 351 98 l 160 98 "},"?":{"x_min":37.71875,"x_max":461.03125,"ha":501,"o":"m 248 981 b 37 734 103 981 37 881 l 37 655 l 137 655 l 137 741 b 245 884 137 827 168 884 b 354 741 323 884 354 829 b 176 272 354 516 176 484 b 183 216 176 250 179 233 l 278 216 b 271 269 274 233 271 251 b 461 736 271 455 461 501 b 248 981 461 884 395 981 m 179 134 l 179 0 l 280 0 l 280 134 l 179 134 "},"H":{"x_min":54.4375,"x_max":500.890625,"ha":567,"o":"m 394 437 l 394 0 l 500 0 l 500 972 l 394 972 l 394 534 l 160 534 l 160 972 l 54 972 l 54 0 l 160 0 l 160 437 l 394 437 "},"c":{"x_min":46.28125,"x_max":475.03125,"ha":528,"o":"m 259 981 b 46 737 114 981 46 884 l 46 234 b 259 -9 46 87 114 -9 b 475 234 406 -9 475 87 l 475 355 l 374 355 l 374 229 b 262 88 374 141 340 88 b 151 229 186 88 151 141 l 151 743 b 262 883 151 830 186 883 b 374 743 340 883 374 830 l 374 650 l 475 650 l 475 737 b 259 981 475 884 406 981 "},"&":{"x_min":55.8125,"x_max":529.46875,"ha":567,"o":"m 434 873 l 434 972 l 280 972 b 55 731 129 972 55 886 l 55 709 b 168 511 55 612 91 538 b 55 308 89 480 55 404 l 55 213 b 228 -9 55 76 110 -9 b 378 84 298 -9 351 22 b 396 0 379 43 385 23 l 503 0 b 483 123 484 37 483 75 l 483 458 l 529 458 l 529 555 l 483 555 l 483 663 l 378 663 l 378 555 l 270 555 b 160 687 201 558 160 604 l 160 736 b 283 873 160 830 202 873 l 434 873 m 378 458 l 378 200 b 270 88 375 125 332 88 b 160 222 197 88 160 136 l 160 311 b 279 458 160 405 200 455 l 378 458 "},"I":{"x_min":54.4375,"x_max":160.609375,"ha":219,"o":"m 54 972 l 54 0 l 160 0 l 160 972 l 54 972 "},"G":{"x_min":46.28125,"x_max":475.03125,"ha":532,"o":"m 259 981 b 46 737 114 981 46 884 l 46 234 b 259 -9 46 87 114 -9 b 475 234 406 -9 475 87 l 475 520 l 276 520 l 276 423 l 374 423 l 374 229 b 262 88 374 141 340 88 b 151 229 186 88 151 141 l 151 743 b 262 883 151 830 186 883 b 374 743 340 883 374 830 l 374 654 l 475 654 l 475 737 b 259 981 475 884 406 981 "},"(":{"x_min":61.25,"x_max":295.359375,"ha":335,"o":"m 295 883 l 295 972 l 257 972 b 61 758 111 972 61 904 l 61 213 b 257 0 61 68 111 0 l 295 0 l 295 88 l 264 88 b 166 213 189 88 166 129 l 166 758 b 264 883 166 843 190 883 l 295 883 "},"`":{"x_min":59,"x_max":263,"ha":310,"o":"m 59 1177 l 185 1034 l 263 1034 l 169 1177 l 59 1177 "},"U":{"x_min":50.359375,"x_max":476.390625,"ha":538,"o":"m 155 972 l 50 972 l 50 234 b 262 -11 50 87 117 -11 b 476 234 409 -11 476 87 l 476 972 l 377 972 l 377 229 b 266 88 377 141 343 88 b 155 229 189 88 155 141 l 155 972 "},"F":{"x_min":54.4375,"x_max":432.828125,"ha":472,"o":"m 160 519 l 160 873 l 432 873 l 432 972 l 54 972 l 54 0 l 160 0 l 160 420 l 379 420 l 379 519 l 160 519 "},"r":{"x_min":54.4375,"x_max":499.53125,"ha":547,"o":"m 54 972 l 54 0 l 160 0 l 160 415 l 235 415 b 374 270 323 415 374 380 l 374 118 b 392 0 374 52 379 27 l 499 0 b 480 116 481 33 480 73 l 480 268 b 360 470 480 372 447 444 b 479 670 442 497 479 563 l 479 750 b 266 972 479 894 416 972 l 54 972 m 160 513 l 160 873 l 264 873 b 374 740 343 873 374 827 l 374 647 b 239 513 374 541 323 513 l 160 513 "},":":{"x_min":54.4375,"x_max":156.53125,"ha":215,"o":"m 54 663 l 54 529 l 156 529 l 156 663 l 54 663 m 54 134 l 54 0 l 156 0 l 156 134 l 54 134 "},"x":{"x_min":31,"x_max":560,"ha":604,"o":"m 448 0 l 560 0 l 369 501 l 547 972 l 448 972 l 300 583 l 153 972 l 43 972 l 222 501 l 31 0 l 131 0 l 290 419 l 448 0 "},"*":{"x_min":25,"x_max":514,"ha":549,"o":"m 514 751 l 488 836 l 289 748 l 312 968 l 225 968 l 249 748 l 50 837 l 25 752 l 236 708 l 93 545 l 162 493 l 268 686 l 376 493 l 445 545 l 301 708 l 514 751 "},"V":{"x_min":27,"x_max":542,"ha":581,"o":"m 27 972 l 206 0 l 363 0 l 542 972 l 443 972 l 289 126 l 134 972 l 27 972 "},"h":{"x_min":54.4375,"x_max":500.890625,"ha":567,"o":"m 394 437 l 394 0 l 500 0 l 500 972 l 394 972 l 394 534 l 160 534 l 160 972 l 54 972 l 54 0 l 160 0 l 160 437 l 394 437 "},"0":{"x_min":46.28125,"x_max":483.1875,"ha":540,"o":"m 46 236 b 264 -9 46 87 118 -9 b 483 236 411 -9 483 87 l 483 737 b 264 981 483 886 411 981 b 46 737 118 981 46 886 l 46 236 m 151 743 b 264 884 151 831 187 884 b 377 743 341 884 377 831 l 377 229 b 264 88 377 141 341 88 b 151 229 187 88 151 141 l 151 743 "},".":{"x_min":54.4375,"x_max":156.53125,"ha":215,"o":"m 54 134 l 54 0 l 156 0 l 156 134 l 54 134 "},"@":{"x_min":40.296875,"x_max":904.328125,"ha":957,"o":"m 532 1020 b 40 399 195 1020 40 730 b 470 -73 40 113 170 -73 b 735 1 565 -73 652 -57 l 743 96 b 475 9 657 28 570 9 b 131 394 238 9 131 153 b 529 935 131 705 257 935 b 822 617 734 935 822 810 b 683 277 824 481 788 277 b 644 337 649 277 640 305 l 685 735 l 592 735 l 582 649 b 466 741 566 708 527 741 b 297 538 365 744 309 665 l 282 399 b 407 187 270 276 305 188 b 547 281 474 185 520 220 b 655 187 551 220 589 187 b 904 620 781 187 904 345 b 532 1020 904 849 806 1020 m 493 646 b 571 535 552 646 578 601 l 558 402 b 453 278 550 327 516 277 b 376 403 390 280 368 331 l 388 528 b 493 646 396 603 430 648 "},"f":{"x_min":54.4375,"x_max":432.828125,"ha":472,"o":"m 160 519 l 160 873 l 432 873 l 432 972 l 54 972 l 54 0 l 160 0 l 160 420 l 379 420 l 379 519 l 160 519 "},";":{"x_min":61,"x_max":163.078125,"ha":222,"o":"m 61 663 l 61 529 l 163 529 l 163 663 l 61 663 m 66 -122 l 110 -122 l 163 9 l 163 134 l 61 134 l 61 0 l 100 0 l 66 -122 "},"i":{"x_min":54.4375,"x_max":160.609375,"ha":219,"o":"m 54 972 l 54 0 l 160 0 l 160 972 l 54 972 "},"6":{"x_min":47.640625,"x_max":484.5625,"ha":540,"o":"m 266 981 b 47 731 115 981 47 886 l 47 236 b 266 -9 47 87 119 -9 b 484 236 412 -9 484 87 l 484 383 b 307 613 484 523 430 613 b 153 509 231 613 179 576 l 153 727 b 269 884 153 831 189 884 b 382 745 347 884 382 833 l 382 720 l 481 720 l 481 738 b 266 981 481 887 413 981 m 266 515 b 379 375 343 515 379 462 l 379 229 b 266 88 379 141 343 88 b 153 229 189 88 153 141 l 153 375 b 266 515 153 462 189 515 "},"A":{"x_min":27,"x_max":546,"ha":586,"o":"m 402 195 l 439 0 l 546 0 l 363 972 l 209 972 l 27 0 l 125 0 l 161 195 l 402 195 m 280 849 l 387 288 l 175 288 l 280 849 "},"n":{"x_min":53.078125,"x_max":502.25,"ha":568,"o":"m 148 786 l 392 0 l 502 0 l 502 972 l 408 972 l 408 269 l 187 972 l 53 972 l 53 0 l 148 0 l 148 786 "},"O":{"x_min":46.28125,"x_max":483.1875,"ha":540,"o":"m 46 234 b 264 -9 46 87 118 -9 b 483 234 411 -9 483 87 l 483 737 b 264 981 483 886 411 981 b 46 737 118 981 46 886 l 46 234 m 151 743 b 264 883 151 830 187 883 b 377 743 341 883 377 830 l 377 229 b 264 88 377 140 341 88 b 151 229 187 88 151 140 l 151 743 "},"3":{"x_min":49,"x_max":477.75,"ha":538,"o":"m 262 981 b 49 737 117 981 49 886 l 49 693 l 148 693 l 148 743 b 259 884 148 830 183 884 b 371 733 337 884 371 833 l 371 688 b 257 555 371 604 328 558 l 194 555 l 194 458 l 251 458 b 371 313 332 455 371 409 l 371 238 b 259 88 371 140 337 88 b 148 229 183 88 148 141 l 148 302 l 49 302 l 49 236 b 262 -9 49 87 117 -9 b 477 236 409 -9 477 87 l 477 311 b 362 512 477 408 442 481 b 477 712 438 541 477 612 l 477 737 b 262 981 477 886 409 981 "},"]":{"x_min":38.109375,"x_max":268.140625,"ha":336,"o":"m 38 88 l 38 0 l 268 0 l 268 972 l 38 972 l 38 883 l 161 883 l 161 88 l 38 88 "},"m":{"x_min":53.078125,"x_max":657.421875,"ha":726,"o":"m 556 781 l 556 0 l 657 0 l 657 972 l 509 972 l 357 195 l 201 972 l 53 972 l 53 0 l 145 0 l 145 775 l 303 1 l 405 1 l 556 781 "},"9":{"x_min":44.921875,"x_max":481.828125,"ha":540,"o":"m 262 981 b 44 737 115 981 44 886 l 44 588 b 221 359 44 448 99 359 b 375 462 298 359 349 395 l 375 244 b 258 88 375 141 340 88 b 145 227 182 88 145 140 l 145 252 l 46 252 l 46 234 b 261 -9 46 86 115 -9 b 481 241 413 -9 481 87 l 481 737 b 262 981 481 886 409 981 m 262 883 b 375 743 340 883 375 831 l 375 597 b 262 456 375 509 340 456 b 149 597 186 456 149 509 l 149 743 b 262 883 149 831 186 883 "},"l":{"x_min":54.4375,"x_max":432.828125,"ha":468,"o":"m 432 0 l 432 98 l 160 98 l 160 972 l 54 972 l 54 0 l 432 0 "},"8":{"x_min":42.1875,"x_max":491.359375,"ha":544,"o":"m 266 981 b 42 741 119 981 42 891 l 42 711 b 152 511 42 612 74 541 b 42 305 72 477 42 404 l 42 233 b 266 -9 42 83 118 -9 b 491 233 415 -9 491 83 l 491 305 b 382 511 491 402 461 479 b 491 711 457 540 491 612 l 491 741 b 266 981 491 891 413 981 m 266 884 b 386 738 341 884 386 838 l 386 691 b 266 555 386 597 341 555 b 147 691 191 555 147 597 l 147 738 b 266 884 147 838 191 884 m 266 458 b 386 318 345 458 386 412 l 386 236 b 266 88 385 136 343 88 b 147 236 190 88 147 136 l 147 318 b 266 458 147 412 187 458 "},"p":{"x_min":54.4375,"x_max":476.390625,"ha":515,"o":"m 54 972 l 54 0 l 160 0 l 160 383 l 254 383 b 476 618 405 383 476 463 l 476 734 b 262 972 476 881 412 972 l 54 972 m 160 480 l 160 873 l 262 873 b 371 740 340 873 371 829 l 371 611 b 254 480 371 518 333 480 l 160 480 "},"4":{"x_min":29.9375,"x_max":517.21875,"ha":556,"o":"m 517 195 l 517 294 l 441 294 l 441 972 l 325 972 l 29 294 l 29 195 l 337 195 l 337 0 l 441 0 l 441 195 l 517 195 m 337 769 l 337 294 l 127 294 l 337 769 "},"R":{"x_min":54.4375,"x_max":499.53125,"ha":547,"o":"m 54 972 l 54 0 l 160 0 l 160 415 l 235 415 b 374 270 323 415 374 380 l 374 118 b 392 0 374 52 379 27 l 499 0 b 480 116 481 33 480 73 l 480 268 b 360 470 480 372 447 444 b 479 670 442 497 479 563 l 479 750 b 266 972 479 894 416 972 l 54 972 m 160 513 l 160 873 l 264 873 b 374 740 343 873 374 827 l 374 647 b 239 513 374 541 323 513 l 160 513 "},"o":{"x_min":46.28125,"x_max":483.1875,"ha":540,"o":"m 46 234 b 264 -9 46 87 118 -9 b 483 234 411 -9 483 87 l 483 737 b 264 981 483 886 411 981 b 46 737 118 981 46 886 l 46 234 m 151 743 b 264 883 151 830 187 883 b 377 743 341 883 377 830 l 377 229 b 264 88 377 140 341 88 b 151 229 187 88 151 140 l 151 743 "},"5":{"x_min":50.359375,"x_max":479.109375,"ha":538,"o":"m 175 875 l 455 875 l 455 972 l 80 972 l 54 431 l 153 431 l 153 454 b 261 558 163 525 202 558 b 372 418 337 558 372 505 l 372 229 b 261 88 372 141 337 88 b 149 229 185 88 149 141 l 149 301 l 50 301 l 50 236 b 264 -9 50 87 118 -9 b 479 236 409 -9 479 87 l 479 426 b 302 656 479 565 424 656 b 160 576 238 656 190 629 l 175 875 "}}}
